<svg id="Layer_1" data-name="Layer 1" xmlns="http://www.w3.org/2000/svg" viewBox="0 0 122.88 107.68"><defs><style>.cls-1{fill-rule:evenodd;}</style></defs><title>add-link</title><path class="cls-1" d="M97.62,40.71A25.26,25.26,0,1,1,72.37,66,25.25,25.25,0,0,1,97.62,40.71ZM51,31.51a5.35,5.35,0,0,1-7.57-7.57L60.79,6.62c5-5,12-7,19-6.56a30.61,30.61,0,0,1,19.37,8.5,30.61,30.61,0,0,1,8.5,19.37,28.07,28.07,0,0,1-.28,6.29,33.23,33.23,0,0,0-9.72-1.44h-.88A17.64,17.64,0,0,0,97,28.6a19.71,19.71,0,0,0-5.41-12.47,19.69,19.69,0,0,0-12.47-5.41c-4.08-.25-8,.8-10.72,3.47L51,31.51ZM63.8,36.32a5.35,5.35,0,0,1,7.56,7.57L43.88,71.36a5.35,5.35,0,0,1-7.56-7.56L63.8,36.32Zm-7.33,40A5.35,5.35,0,1,1,64,83.92L46.89,101.07c-5,5-12,7-19,6.55a30.64,30.64,0,0,1-19.37-8.5A30.61,30.61,0,0,1,.06,79.75c-.44-7,1.56-14,6.56-19L23.76,43.64a5.35,5.35,0,1,1,7.57,7.57L14.19,68.36C11.52,71,10.47,75,10.72,79.08a19.69,19.69,0,0,0,5.41,12.47A19.71,19.71,0,0,0,28.6,97c4.08.26,8-.79,10.72-3.46L56.47,76.35Zm55.07-13.07v5.36a2,2,0,0,1-2,2h-7.28V77.9a2,2,0,0,1-2,2H94.94a2,2,0,0,1-2-2V70.62H85.68a2,2,0,0,1-2-2V63.28a2,2,0,0,1,2-2H93V54a2,2,0,0,1,2-2h5.36a2,2,0,0,1,2,2V61.3h7.28a2,2,0,0,1,2,2Z"/></svg>