<svg width="512" height="512" viewBox="0 0 512 512" fill="none" xmlns="http://www.w3.org/2000/svg">
<path d="M256 214.75C253.371 214.75 250.798 213.997 248.584 212.58C246.371 211.162 244.61 209.14 243.51 206.753C242.41 204.365 242.018 201.713 242.38 199.109C242.741 196.505 243.841 194.06 245.55 192.063L309.9 116.438C311.074 115.065 312.506 113.938 314.116 113.119C315.725 112.3 317.48 111.806 319.28 111.666C321.081 111.526 322.891 111.741 324.608 112.3C326.325 112.859 327.915 113.751 329.287 114.925C330.66 116.099 331.787 117.531 332.606 119.141C333.425 120.75 333.919 122.505 334.059 124.306C334.199 126.106 333.984 127.916 333.425 129.633C332.866 131.35 331.974 132.94 330.8 134.313L266.45 209.938C265.159 211.447 263.556 212.659 261.752 213.489C259.949 214.32 257.986 214.75 256 214.75Z" fill="#FFB300"/>
<path d="M338.5 146C330.342 146 322.366 143.581 315.583 139.048C308.799 134.516 303.512 128.073 300.39 120.536C297.268 112.998 296.451 104.704 298.043 96.7025C299.634 88.7008 303.563 81.3508 309.332 75.5819C315.101 69.8129 322.451 65.8843 330.453 64.2926C338.454 62.701 346.748 63.5179 354.286 66.64C361.823 69.7621 368.266 75.0492 372.798 81.8327C377.331 88.6163 379.75 96.5915 379.75 104.75C379.75 115.69 375.404 126.182 367.668 133.918C359.932 141.654 349.44 146 338.5 146ZM338.5 91C335.781 91 333.122 91.8064 330.861 93.3173C328.6 94.8282 326.837 96.9756 325.797 99.4881C324.756 102.001 324.484 104.765 325.014 107.433C325.545 110.1 326.854 112.55 328.777 114.473C330.7 116.396 333.15 117.705 335.818 118.236C338.485 118.766 341.249 118.494 343.762 117.453C346.274 116.413 348.422 114.65 349.933 112.389C351.444 110.128 352.25 107.47 352.25 104.75C352.25 101.103 350.801 97.6059 348.223 95.0273C345.644 92.4487 342.147 91 338.5 91Z" fill="#FFB300"/>
<path d="M379.75 448.5H132.25C128.603 448.5 125.106 447.051 122.527 444.473C119.949 441.894 118.5 438.397 118.5 434.75V201C118.5 197.353 119.949 193.856 122.527 191.277C125.106 188.699 128.603 187.25 132.25 187.25H379.75C383.397 187.25 386.894 188.699 389.473 191.277C392.051 193.856 393.5 197.353 393.5 201V434.75C393.5 438.397 392.051 441.894 389.473 444.473C386.894 447.051 383.397 448.5 379.75 448.5ZM146 421H366V214.75H146V421Z" fill="white"/>
<path d="M311 242.25H297.25C289.656 242.25 283.5 248.406 283.5 256V283.5C283.5 291.094 289.656 297.25 297.25 297.25H311C318.594 297.25 324.75 291.094 324.75 283.5V256C324.75 248.406 318.594 242.25 311 242.25Z" fill="white"/>
<path d="M214.75 242.25H201C193.406 242.25 187.25 248.406 187.25 256V283.5C187.25 291.094 193.406 297.25 201 297.25H214.75C222.344 297.25 228.5 291.094 228.5 283.5V256C228.5 248.406 222.344 242.25 214.75 242.25Z" fill="white"/>
<path d="M297.25 379.75H214.75C211.103 379.75 207.606 378.301 205.027 375.723C202.449 373.144 201 369.647 201 366C201 362.353 202.449 358.856 205.027 356.277C207.606 353.699 211.103 352.25 214.75 352.25H297.25C300.897 352.25 304.394 353.699 306.973 356.277C309.551 358.856 311 362.353 311 366C311 369.647 309.551 373.144 306.973 375.723C304.394 378.301 300.897 379.75 297.25 379.75ZM421 365.175H379.75C376.103 365.175 372.606 363.726 370.027 361.148C367.449 358.569 366 355.072 366 351.425C366 347.778 367.449 344.281 370.027 341.702C372.606 339.124 376.103 337.675 379.75 337.675H407.25V269.75H379.75C376.103 269.75 372.606 268.301 370.027 265.723C367.449 263.144 366 259.647 366 256C366 252.353 367.449 248.856 370.027 246.277C372.606 243.699 376.103 242.25 379.75 242.25H421C424.647 242.25 428.144 243.699 430.723 246.277C433.301 248.856 434.75 252.353 434.75 256V351.425C434.75 355.072 433.301 358.569 430.723 361.148C428.144 363.726 424.647 365.175 421 365.175ZM132.25 365.175H91C87.3533 365.175 83.8559 363.726 81.2773 361.148C78.6987 358.569 77.25 355.072 77.25 351.425V256C77.25 252.353 78.6987 248.856 81.2773 246.277C83.8559 243.699 87.3533 242.25 91 242.25H132.25C135.897 242.25 139.394 243.699 141.973 246.277C144.551 248.856 146 252.353 146 256C146 259.647 144.551 263.144 141.973 265.723C139.394 268.301 135.897 269.75 132.25 269.75H104.75V337.675H132.25C135.897 337.675 139.394 339.124 141.973 341.702C144.551 344.281 146 347.778 146 351.425C146 355.072 144.551 358.569 141.973 361.148C139.394 363.726 135.897 365.175 132.25 365.175ZM256 214.75C254.014 214.75 252.051 214.32 250.247 213.489C248.444 212.658 246.841 211.447 245.55 209.937L190.55 145.175C188.222 142.411 187.076 138.842 187.359 135.24C187.642 131.637 189.332 128.291 192.063 125.925C193.435 124.751 195.025 123.859 196.742 123.3C198.459 122.741 200.269 122.525 202.07 122.666C203.87 122.806 205.625 123.3 207.234 124.119C208.844 124.937 210.276 126.065 211.45 127.437L266.45 192.062C268.159 194.06 269.259 196.505 269.62 199.109C269.982 201.712 269.589 204.365 268.49 206.752C267.39 209.14 265.629 211.162 263.416 212.579C261.202 213.997 258.629 214.75 256 214.75Z" fill="white"/>
<path d="M182.712 156.863C174.554 156.863 166.579 154.443 159.795 149.911C153.012 145.378 147.725 138.936 144.602 131.398C141.48 123.861 140.663 115.567 142.255 107.565C143.847 99.5634 147.775 92.2133 153.544 86.4444C159.313 80.6755 166.663 76.7468 174.665 75.1552C182.667 73.5635 190.961 74.3804 198.498 77.5025C206.036 80.6247 212.478 85.9118 217.011 92.6953C221.543 99.4788 223.962 107.454 223.962 115.613C223.962 126.553 219.616 137.045 211.881 144.781C204.145 152.517 193.653 156.863 182.712 156.863ZM182.712 101.863C179.993 101.863 177.335 102.669 175.073 104.18C172.812 105.691 171.05 107.838 170.009 110.351C168.968 112.863 168.696 115.628 169.227 118.295C169.757 120.962 171.067 123.412 172.99 125.335C174.913 127.258 177.363 128.568 180.03 129.098C182.697 129.629 185.462 129.357 187.974 128.316C190.487 127.275 192.634 125.513 194.145 123.252C195.656 120.99 196.462 118.332 196.462 115.613C196.462 111.966 195.014 108.468 192.435 105.89C189.857 103.311 186.359 101.863 182.712 101.863Z" fill="white"/>
</svg>
