<svg width="424" height="424" viewBox="0 0 424 424" fill="none" xmlns="http://www.w3.org/2000/svg">
<path d="M212 172.25C209.467 172.25 206.987 171.524 204.854 170.158C202.721 168.793 201.024 166.844 199.964 164.543C198.905 162.243 198.527 159.687 198.875 157.178C199.223 154.669 200.284 152.312 201.93 150.387L263.94 77.5125C265.071 76.1901 266.451 75.1034 268.002 74.3145C269.553 73.5255 271.245 73.0498 272.979 72.9145C274.714 72.7791 276.459 72.9868 278.113 73.5257C279.768 74.0645 281.3 74.924 282.623 76.055C283.945 77.186 285.032 78.5664 285.821 80.1174C286.609 81.6684 287.085 83.3596 287.221 85.0944C287.356 86.8292 287.148 88.5737 286.609 90.2283C286.07 91.8829 285.211 93.4151 284.08 94.7375L222.07 167.612C220.826 169.067 219.282 170.235 217.543 171.035C215.805 171.836 213.914 172.25 212 172.25Z" fill="#FFB300"/>
<path d="M291.5 106C283.638 106 275.953 103.669 269.416 99.3009C262.879 94.9331 257.784 88.725 254.776 81.4617C251.767 74.1983 250.98 66.2059 252.514 58.4951C254.048 50.7844 257.833 43.7016 263.392 38.1425C268.952 32.5834 276.034 28.7975 283.745 27.2638C291.456 25.73 299.448 26.5172 306.712 29.5258C313.975 32.5344 320.183 37.6292 324.551 44.1661C328.919 50.7029 331.25 58.3882 331.25 66.25C331.25 76.7923 327.062 86.9029 319.607 94.3575C312.153 101.812 302.042 106 291.5 106ZM291.5 53C288.879 53 286.318 53.7771 284.139 55.233C281.96 56.6889 280.261 58.7583 279.259 61.1794C278.256 63.6006 277.993 66.2647 278.505 68.8349C279.016 71.4052 280.278 73.7661 282.131 75.6191C283.984 77.4722 286.345 78.7341 288.915 79.2454C291.485 79.7566 294.149 79.4943 296.571 78.4914C298.992 77.4885 301.061 75.7902 302.517 73.6113C303.973 71.4323 304.75 68.8706 304.75 66.25C304.75 62.7359 303.354 59.3657 300.869 56.8808C298.384 54.396 295.014 53 291.5 53Z" fill="#FFB300"/>
<path d="M331.25 397.5H92.75C89.2359 397.5 85.8657 396.104 83.3808 393.619C80.896 391.134 79.5 387.764 79.5 384.25V159C79.5 155.486 80.896 152.116 83.3808 149.631C85.8657 147.146 89.2359 145.75 92.75 145.75H331.25C334.764 145.75 338.134 147.146 340.619 149.631C343.104 152.116 344.5 155.486 344.5 159V384.25C344.5 387.764 343.104 391.134 340.619 393.619C338.134 396.104 334.764 397.5 331.25 397.5ZM106 371H318V172.25H106V371Z" fill="black"/>
<path d="M265 198.75H251.75C244.432 198.75 238.5 204.682 238.5 212V238.5C238.5 245.818 244.432 251.75 251.75 251.75H265C272.318 251.75 278.25 245.818 278.25 238.5V212C278.25 204.682 272.318 198.75 265 198.75Z" fill="black"/>
<path d="M172.25 198.75H159C151.682 198.75 145.75 204.682 145.75 212V238.5C145.75 245.818 151.682 251.75 159 251.75H172.25C179.568 251.75 185.5 245.818 185.5 238.5V212C185.5 204.682 179.568 198.75 172.25 198.75Z" fill="black"/>
<path d="M251.75 331.25H172.25C168.736 331.25 165.366 329.854 162.881 327.369C160.396 324.884 159 321.514 159 318C159 314.486 160.396 311.116 162.881 308.631C165.366 306.146 168.736 304.75 172.25 304.75H251.75C255.264 304.75 258.634 306.146 261.119 308.631C263.604 311.116 265 314.486 265 318C265 321.514 263.604 324.884 261.119 327.369C258.634 329.854 255.264 331.25 251.75 331.25ZM371 317.205H331.25C327.736 317.205 324.366 315.809 321.881 313.324C319.396 310.839 318 307.469 318 303.955C318 300.441 319.396 297.071 321.881 294.586C324.366 292.101 327.736 290.705 331.25 290.705H357.75V225.25H331.25C327.736 225.25 324.366 223.854 321.881 221.369C319.396 218.884 318 215.514 318 212C318 208.486 319.396 205.116 321.881 202.631C324.366 200.146 327.736 198.75 331.25 198.75H371C374.514 198.75 377.884 200.146 380.369 202.631C382.854 205.116 384.25 208.486 384.25 212V303.955C384.25 307.469 382.854 310.839 380.369 313.324C377.884 315.809 374.514 317.205 371 317.205ZM92.75 317.205H53C49.4859 317.205 46.1157 315.809 43.6308 313.324C41.146 310.839 39.75 307.469 39.75 303.955V212C39.75 208.486 41.146 205.116 43.6308 202.631C46.1157 200.146 49.4859 198.75 53 198.75H92.75C96.2641 198.75 99.6343 200.146 102.119 202.631C104.604 205.116 106 208.486 106 212C106 215.514 104.604 218.884 102.119 221.369C99.6343 223.854 96.2641 225.25 92.75 225.25H66.25V290.705H92.75C96.2641 290.705 99.6343 292.101 102.119 294.586C104.604 297.071 106 300.441 106 303.955C106 307.469 104.604 310.839 102.119 313.324C99.6343 315.809 96.2641 317.205 92.75 317.205ZM212 172.25C210.086 172.25 208.195 171.836 206.457 171.035C204.718 170.235 203.174 169.067 201.93 167.612L148.93 105.205C146.687 102.542 145.582 99.1025 145.855 95.6311C146.128 92.1597 147.756 88.9352 150.388 86.655C151.71 85.5239 153.242 84.6644 154.897 84.1255C156.551 83.5866 158.296 83.3789 160.031 83.5142C161.765 83.6495 163.457 84.1253 165.008 84.9143C166.559 85.7032 167.939 86.79 169.07 88.1125L222.07 150.388C223.716 152.312 224.777 154.669 225.125 157.178C225.473 159.687 225.095 162.243 224.036 164.543C222.976 166.844 221.279 168.793 219.146 170.158C217.013 171.524 214.533 172.25 212 172.25Z" fill="black"/>
<path d="M141.377 116.467C133.516 116.467 125.83 114.136 119.294 109.768C112.757 105.401 107.662 99.1925 104.653 91.9291C101.645 84.6658 100.858 76.6734 102.391 68.9626C103.925 61.2519 107.711 54.1691 113.27 48.61C118.829 43.0509 125.912 39.265 133.623 37.7313C141.333 36.1975 149.326 36.9847 156.589 39.9933C163.853 43.0019 170.061 48.0967 174.428 54.6336C178.796 61.1704 181.127 68.8557 181.127 76.7175C181.127 87.2598 176.94 97.3704 169.485 104.825C162.03 112.28 151.92 116.467 141.377 116.467ZM141.377 63.4675C138.757 63.4675 136.195 64.2446 134.016 65.7005C131.837 67.1564 130.139 69.2258 129.136 71.6469C128.133 74.0681 127.871 76.7322 128.382 79.3024C128.893 81.8727 130.155 84.2336 132.008 86.0866C133.861 87.9397 136.222 89.2016 138.793 89.7129C141.363 90.2241 144.027 89.9618 146.448 88.9589C148.869 87.956 150.939 86.2577 152.394 84.0788C153.85 81.8998 154.627 79.3381 154.627 76.7175C154.627 73.2034 153.232 69.8332 150.747 67.3483C148.262 64.8635 144.892 63.4675 141.377 63.4675Z" fill="black"/>
</svg>
